<?xml version="1.0" encoding="UTF-8" standalone="no"?>
<!-- Created with Inkscape (http://www.inkscape.org/) -->

<svg
   width="100"
   height="46"
   viewBox="0 0 705.88049 324.78099"
   version="1.1"
   id="svg1"
   inkscape:version="1.4.2 (ebf0e940, 2025-05-08)"
   sodipodi:docname="skolegpt.svg"
   xmlns:inkscape="http://www.inkscape.org/namespaces/inkscape"
   xmlns:sodipodi="http://sodipodi.sourceforge.net/DTD/sodipodi-0.dtd"
   xmlns="http://www.w3.org/2000/svg"
   xmlns:svg="http://www.w3.org/2000/svg">
  <sodipodi:namedview
     id="namedview1"
     pagecolor="#ffffff"
     bordercolor="#000000"
     borderopacity="0.25"
     inkscape:showpageshadow="2"
     inkscape:pageopacity="0.0"
     inkscape:pagecheckerboard="0"
     inkscape:deskcolor="#d1d1d1"
     inkscape:document-units="mm"
     inkscape:zoom="0.36228234"
     inkscape:cx="387.81907"
     inkscape:cy="356.07588"
     inkscape:window-width="1920"
     inkscape:window-height="1027"
     inkscape:window-x="0"
     inkscape:window-y="25"
     inkscape:window-maximized="0"
     inkscape:current-layer="layer1" />
  <defs
     id="defs1">
    <clipPath
       clipPathUnits="userSpaceOnUse"
       id="clipPath80">
      <path
         d="M 0,1560 H 2891.28 V 0 H 0 Z"
         transform="translate(-1417.2696,-944.98412)"
         id="path80" />
    </clipPath>
    <clipPath
       clipPathUnits="userSpaceOnUse"
       id="clipPath30">
      <path
         d="M 0,1560 H 2891.28 V 0 H 0 Z"
         transform="translate(-1621.671,-1127.8656)"
         id="path30" />
    </clipPath>
  </defs>
  <g
     inkscape:label="Layer 1"
     inkscape:groupmode="layer"
     id="layer1">
    <path
       id="path29"
       d="m 0,0 c 0.913,0.434 1.968,0.639 2.565,1.274 2.406,2.559 4.688,5.236 6.984,7.897 6.26,7.256 12.306,14.698 19.245,21.352 9.345,8.961 19.962,15.903 32.042,20.6 2.92,1.135 4.025,0.883 5.68,-1.58 2.495,-3.711 4.985,-7.428 7.371,-11.209 3.936,-6.238 8.548,-11.949 13.413,-17.467 0.838,-0.95 1.76,-1.853 2.767,-2.615 0.434,-0.328 1.367,-0.537 1.762,-0.295 6.336,3.894 11.827,8.609 15.427,15.321 3.788,7.065 4.972,14.461 3.265,22.246 -0.61,2.785 -1.551,5.551 -2.732,8.148 -2.386,5.25 -5.508,10.074 -9.156,14.565 C 92.875,85.325 85.394,89.127 76.388,90.015 71.28,90.518 66.144,90.505 61.081,89.652 50.367,87.848 39.656,86.007 28.991,83.942 22.71,82.727 16.608,80.823 10.879,77.841 -4.986,69.585 -14.927,56.282 -21.27,40.008 c -1.505,-3.863 -1.931,-8.031 -1.51,-12.257 0.629,-6.309 3.347,-11.617 7.531,-16.223 C -10.912,6.756 -5.819,2.946 0,0 m -290.142,-37.864 c 10.825,3.79 19.117,10.094 25.908,18.412 2.619,3.207 5.029,6.606 7.299,10.072 3.146,4.804 6.05,9.767 9.094,14.639 3.048,4.877 6.271,9.627 10.07,13.97 4.248,4.857 9.174,8.835 14.849,11.938 2.334,1.277 4.683,1.889 7.331,1.616 14.482,-1.49 26.216,-7.648 34.266,-20.069 1.561,-2.41 2.96,-4.925 4.496,-7.351 1.879,-2.965 3.653,-6.02 5.79,-8.792 1.935,-2.511 4.076,-4.961 6.509,-6.978 10.964,-9.09 30.436,-4.079 32.808,11.923 1.34,9.039 0.466,17.858 -4.193,25.976 -12.336,21.494 -30.323,35.883 -54.189,42.801 -8.698,2.521 -17.569,3.339 -26.558,2.019 -5.052,-0.742 -10.044,-1.767 -14.948,-3.287 -32.173,-9.966 -55.759,-30.235 -71.798,-59.572 -3.262,-5.967 -5.042,-12.368 -5.279,-19.211 -0.197,-5.692 1.404,-10.706 5.131,-15.005 1.462,-1.686 3.004,-3.313 4.603,-4.871 2.729,-2.658 5.235,-5.566 8.811,-8.23 m 430.241,-45.254 c -0.328,4.142 -0.545,8.296 -1.006,12.423 -1.674,15.006 -10.394,25.241 -25,29.4 -1.837,0.523 -3.732,0.89 -5.625,1.163 -6.354,0.913 -12.719,1.321 -19.119,0.332 -2.209,-0.342 -4.455,-0.448 -6.686,-0.641 -21.35,-1.851 -42.669,-3.911 -63.89,-7.021 -27.225,-3.991 -54.26,-8.967 -81.118,-14.884 -34.346,-7.566 -68.633,-15.404 -102.947,-23.117 -23.718,-5.331 -47.578,-9.96 -71.564,-13.883 -28.741,-4.701 -57.668,-7.931 -86.742,-9.66 -5.902,-0.351 -11.274,-2.011 -16.582,-4.306 -1.931,-0.836 -3.018,-2.361 -3.6,-4.227 -2.087,-6.69 -1.279,-13.318 1.059,-19.725 2.177,-5.968 6.161,-8.41 12.485,-8.536 4.54,-0.09 8.936,0.776 13.24,1.985 11.957,3.358 24.116,2.198 36.243,1.881 1.16,-0.031 2.441,-1.172 2.646,-2.398 1,-5.982 2.238,-11.943 2.864,-17.965 2.841,-27.29 12.164,-52.123 27.818,-74.626 13.636,-19.602 30.397,-36.195 49.231,-50.745 12.613,-9.744 26.961,-15.757 42.51,-19.098 7.225,-1.552 14.579,-1.876 21.87,-2.792 10.967,-1.377 21.804,-0.296 32.42,1.975 15.345,3.283 30.185,8.333 44.337,15.252 22.124,10.816 43.95,22.181 65.142,34.744 23.413,13.879 45.926,29.061 67.232,46.007 11.058,8.795 21.05,18.642 29.634,29.894 18.03,23.634 28.512,50.492 33.873,79.488 1.16,6.27 1.803,12.659 1.275,19.08 m -566.446,240.337 c 12.343,3.446 24.966,5.028 37.716,6.1 16.213,1.363 32.381,3.258 48.577,4.843 16.196,1.585 32.406,3.033 48.603,4.613 16.196,1.579 32.382,3.267 48.576,4.869 9.208,0.911 18.425,1.739 27.637,2.619 7.941,0.759 15.883,1.515 23.817,2.34 0.91,0.095 1.775,0.626 2.66,0.954 6.334,0.466 12.672,0.889 19.001,1.423 2.183,0.184 3.245,1.708 3.026,3.989 -1.217,12.661 -2.426,25.322 -3.677,37.98 -0.593,6 -1.272,11.991 -1.946,18.304 -2.068,1.309 -4.223,2.62 -6.325,4.012 -16.732,11.085 -25.029,26.565 -24.336,46.715 0.065,1.903 0.113,3.806 0.169,5.709 0.889,2.715 1.694,5.461 2.682,8.14 7.122,19.308 21.112,30.642 40.984,35.111 27.024,3.742 48.901,-11.21 57.507,-32.017 8.597,-20.786 2.095,-42.834 -11.152,-55.815 -2.049,-2.007 -4.205,-3.906 -6.071,-5.631 -1.112,-1.741 -0.888,-3.348 -0.729,-4.919 1.704,-16.839 3.423,-33.677 5.155,-50.513 0.13,-1.264 0.371,-2.518 0.581,-3.774 0.116,-0.697 1.387,-1.732 2.075,-1.72 0.632,0.011 1.272,-0.105 1.897,-0.044 25.453,2.464 50.906,4.937 76.357,7.419 26.088,2.543 52.177,5.072 78.261,7.654 22.586,2.236 45.156,4.626 67.75,6.766 9.536,0.903 19.073,1.589 28.713,1.051 36.498,-2.035 78.661,-26.716 93.379,-75.089 2.045,-6.72 3.46,-13.63 4.165,-20.639 1.441,-14.3 2.774,-28.611 4.174,-42.915 1.647,-16.848 3.327,-33.692 4.976,-50.539 1.556,-15.893 3.093,-31.789 4.634,-47.684 1.51,-15.578 2.995,-31.157 4.54,-46.731 0.283,-2.855 0.805,-5.686 1.216,-8.527 -0.772,-4.811 0.22,-9.554 0.672,-14.303 1.546,-16.225 3.233,-32.437 4.832,-48.657 2.415,-24.49 4.82,-48.981 7.192,-73.475 1.141,-11.77 2.37,-23.535 3.253,-35.325 1.41,-18.846 -1.695,-36.925 -9.935,-54.033 -0.97,-2.013 -1.912,-4.045 -2.722,-6.124 -0.18,-0.464 0.253,-1.166 0.404,-1.758 l 0.043,0.114 c -1.559,0.171 -1.559,0.171 -2.051,-1.826 0,0 0.031,0.017 0.031,0.016 -1.181,-0.358 -1.65,-1.208 -1.651,-2.381 -2.691,-3.686 -5.968,-6.961 -7.859,-11.206 -2.045,-2 -4.103,-3.986 -6.131,-6.002 -18.147,-18.038 -39.984,-28.272 -65.434,-30.799 -20.684,-2.054 -41.377,-4.023 -62.065,-6.041 -7.639,-0.746 -15.273,-1.533 -22.911,-2.288 -16.548,-1.637 -33.095,-3.278 -49.646,-4.891 -15.914,-1.551 -31.832,-3.056 -47.746,-4.607 -17.187,-1.675 -34.371,-3.379 -51.556,-5.074 -14.318,-1.412 -28.636,-2.828 -42.689,-4.216 -2.885,-1.556 -4.41,-4.069 -6.225,-6.272 -32.109,-38.978 -64.192,-77.978 -96.288,-116.968 -10.969,-13.325 -22.028,-26.578 -32.898,-39.983 -3.969,-4.894 -8.884,-8.222 -14.722,-10.279 -1.783,-0.629 -3.75,-1.192 -5.599,-1.102 -10.572,0.515 -19.171,4.649 -24.541,14.184 -1.903,3.379 -2.88,7.067 -3.239,10.943 -0.824,8.907 -1.715,17.809 -2.596,26.711 -1.604,16.215 -3.243,32.426 -4.826,48.643 -1.551,15.899 -3.044,31.804 -4.582,47.704 -0.153,1.588 -0.425,3.166 -0.679,4.742 -0.173,1.075 -1.694,2.318 -2.741,2.22 -7.323,-0.68 -14.646,-1.357 -21.965,-2.077 -8.911,-0.877 -17.81,-1.876 -26.727,-2.68 -25.411,-2.292 -49.072,3 -70.244,17.394 -26.577,18.069 -42.11,43.213 -46.177,75.145 -1.573,12.356 -2.535,24.789 -3.754,37.19 -1.5,15.262 -2.963,30.528 -4.467,45.79 -2.256,22.892 -4.553,45.78 -6.796,68.674 -1.558,15.898 -3.02,31.806 -4.585,47.704 -2.222,22.575 -4.518,45.142 -6.748,67.716 -2.513,25.435 -5,50.873 -7.477,76.312 -0.897,9.221 -1.852,18.44 -2.564,27.677 -0.814,10.559 -0.41,21.083 1.935,31.458 0.845,3.736 1.896,7.426 2.852,11.136 0.4,0.47 0.978,0.875 1.172,1.418 4.224,11.807 10.334,22.543 18.186,32.315 0.55,0.686 0.686,1.704 1.015,2.567 l -0.085,-0.101 c 1.319,0.039 1.926,0.77 1.984,2.035 l -0.085,-0.096 c 2.015,0.395 3.072,2.068 4.399,3.352 10.765,10.414 23.011,18.481 37.158,23.58 1.158,0.417 2.193,1.172 3.286,1.77"
       style="fill:#888888;fill-opacity:1;fill-rule:nonzero;stroke:none"
       transform="matrix(0.35277774,0,0,-0.35277776,177.87678,123.89014)"
       clip-path="url(#clipPath30)" />
    <path
       id="path79"
       d="M 0,0 C -0.65,-12.397 8.873,-28.663 27.934,-29.211 45.898,-29.728 57.44,-15.449 57.56,-0.679 57.682,14.337 45.359,27.852 29.11,28.082 13.567,28.302 0.357,15.747 0,0 m 216.229,-18.558 c 14.167,-0.809 28.658,10.632 29.367,27.754 0.543,13.108 -9.245,29.292 -28.698,29.516 -17.837,0.206 -28.763,-14.63 -28.847,-28.369 -0.108,-17.618 14.898,-29.334 28.178,-28.901 M 94.097,5.236 c -0.558,-14.561 11.045,-28.678 27.925,-29.218 15.902,-0.51 29.603,12.4 29.505,28.649 -0.106,17.66 -14.629,28.655 -28.465,28.79 C 107.269,33.612 94.054,20.417 94.097,5.236 m 198.836,98.363 c 0.794,-1.21 1.663,-2.195 2.158,-3.34 6.703,-15.513 9.81,-31.664 8.356,-48.573 -0.8,-9.304 -3.313,-18.185 -6.944,-26.767 C 291.606,13.347 284.681,3.03 276.809,-6.686 264.039,-22.45 249.157,-35.95 232.104,-46.907 c -20.429,-13.127 -41.249,-25.636 -63.112,-36.277 -16.708,-8.132 -34.034,-14.535 -52.308,-18.354 -14.19,-2.964 -28.454,-4.104 -42.885,-3.176 -12.609,0.812 -24.554,4.094 -35.585,10.346 -45.032,25.52 -75.872,62.748 -92.49,111.767 -2.024,5.971 -1.926,11.934 -1.097,17.96 0.25,1.821 1.347,3.551 2.19,5.258 1.208,2.445 3.1,3.79 5.968,4.103 38.179,4.162 75.758,11.75 113.165,20.197 33.029,7.459 65.959,15.355 98.947,22.994 16.499,3.821 33.048,7.448 49.785,10.056 14.205,2.212 28.441,4.307 42.846,4.846 9.58,0.359 19.156,0.809 28.737,1.129 2.21,0.073 4.433,-0.218 6.668,-0.343"
       style="fill:#888888;fill-opacity:1;fill-rule:nonzero;stroke:none"
       transform="matrix(0.35277774,0,0,-0.35277776,105.76848,188.40667)"
       clip-path="url(#clipPath80)" />
  </g>
</svg>
